<svg id="Ebene_1" data-name="Ebene 1" xmlns="http://www.w3.org/2000/svg" viewBox="0 0 1000 1001.98"><title>book</title><path d="M505.54,1000.87A37.73,37.73,0,0,1,500,1002a36.5,36.5,0,0,1-5.56-1.11,31.64,31.64,0,0,0-5.56-1.11l-11.12-2.22L35.54,819.78Q0,806.44,0,768.67V57.59Q0,24.22,24.47,10.93,48.89-6.82,75.53,4.25L500,175.38,924.42,4.25q26.69-11.07,51.11,6.67Q999.95,24.27,1000,57.59V768.67q0,37.76-35.54,51.11L522.22,997.53a17.62,17.62,0,0,0-5.56,1.11,37.73,37.73,0,0,1-5.56,1.11A36.51,36.51,0,0,0,505.54,1000.87Zm-61.12-114.4V264.25L88.87,122V744.26ZM377.74,395.39v75.53L155.55,382V306.46Zm0,231.08V702L155.5,613.12V537.59ZM911.08,744.26V122L555.53,264.25V886.46ZM844.4,382,622.16,470.91V395.39L844.4,306.51Zm0,155.55v75.53L622.16,702V626.47Z" transform="translate(0 0)"/></svg>