<?xml version="1.0" encoding="UTF-8"?><!DOCTYPE svg PUBLIC "-//W3C//DTD SVG 1.1//EN" "http://www.w3.org/Graphics/SVG/1.1/DTD/svg11.dtd"><svg xmlns="http://www.w3.org/2000/svg"><symbol id="book" viewBox="0 0 1000 1001.98"><title>book</title><path d="M505.54 1000.87A37.73 37.73 0 0 1 500 1002a36.5 36.5 0 0 1-5.56-1.11 31.64 31.64 0 0 0-5.56-1.11l-11.12-2.22L35.54 819.78Q0 806.44 0 768.67V57.59q0-33.37 24.47-46.66Q48.89-6.82 75.53 4.25L500 175.38 924.42 4.25q26.69-11.07 51.11 6.67 24.42 13.35 24.47 46.67v711.08q0 37.76-35.54 51.11L522.22 997.53a17.62 17.62 0 0 0-5.56 1.11 37.73 37.73 0 0 1-5.56 1.11 36.51 36.51 0 0 0-5.56 1.12zm-61.12-114.4V264.25L88.87 122v622.26zm-66.68-491.08v75.53L155.55 382v-75.54zm0 231.08V702L155.5 613.12v-75.53zm533.34 117.79V122L555.53 264.25v622.21zM844.4 382l-222.24 88.91v-75.52l222.24-88.88zm0 155.55v75.53L622.16 702v-75.53z"/></symbol><symbol id="truck" viewBox="0 0 1000 727.27"><title>truck</title><path d="M772.73 659.09a68.18 68.18 0 1 1 68.18-68.18 68.18 68.18 0 0 1-68.18 68.18M840.91 250L930 363.64H727.27V250m-500 409.09a68.18 68.18 0 1 1 68.18-68.18 68.18 68.18 0 0 1-68.18 68.18m636.37-477.27H727.27V0H90.91A90.59 90.59 0 0 0 0 90.91v500h90.91a136.365 136.365 0 0 0 272.73 0h272.72a136.365 136.365 0 0 0 272.73 0H1000V363.64z"/></symbol></svg>